<svg xmlns="http://www.w3.org/2000/svg" xmlns:xlink="http://www.w3.org/1999/xlink" width="1080" zoomAndPan="magnify" viewBox="0 0 810 809.999993" height="1080" preserveAspectRatio="xMidYMid meet" version="1.0"><defs><clipPath id="e7c68307c7"><path d="M 35.839844 81 L 809.839844 81 L 809.839844 809 L 35.839844 809 Z M 35.839844 81 " clip-rule="nonzero"/></clipPath><clipPath id="52072763be"><path d="M 577 121 L 605.25 121 L 605.25 149 L 577 149 Z M 577 121 " clip-rule="nonzero"/></clipPath><clipPath id="22d711a890"><path d="M 81 133 L 592 133 L 592 202.773438 L 81 202.773438 Z M 81 133 " clip-rule="nonzero"/></clipPath><clipPath id="51edc76ac5"><path d="M 577 121 L 605.25 121 L 605.25 149 L 577 149 Z M 577 121 " clip-rule="nonzero"/></clipPath><clipPath id="dd41749c3b"><path d="M 81 133 L 592 133 L 592 202.773438 L 81 202.773438 Z M 81 133 " clip-rule="nonzero"/></clipPath><clipPath id="48d99dc127"><path d="M 449 99.273438 L 477 99.273438 L 477 128 L 449 128 Z M 449 99.273438 " clip-rule="nonzero"/></clipPath><clipPath id="30c0cd60be"><path d="M 62.792969 355 L 91 355 L 91 384 L 62.792969 384 Z M 62.792969 355 " clip-rule="nonzero"/></clipPath><clipPath id="607116304a"><path d="M 76 301.496094 L 587.042969 301.496094 L 587.042969 372 L 76 372 Z M 76 301.496094 " clip-rule="nonzero"/></clipPath><clipPath id="6415db8e92"><path d="M 62.792969 355 L 91 355 L 91 384 L 62.792969 384 Z M 62.792969 355 " clip-rule="nonzero"/></clipPath><clipPath id="ef04cfb17c"><path d="M 76 301.496094 L 587.042969 301.496094 L 587.042969 372 L 76 372 Z M 76 301.496094 " clip-rule="nonzero"/></clipPath><clipPath id="f3187ff773"><path d="M 191 377 L 219 377 L 219 404.996094 L 191 404.996094 Z M 191 377 " clip-rule="nonzero"/></clipPath></defs><g clip-path="url(#e7c68307c7)"><path fill="#737373" d="M 543.9375 692.179688 C 546.03125 694.199219 549.179688 694.199219 551.277344 692.179688 C 553.292969 690.085938 553.292969 686.933594 551.277344 684.839844 C 549.503906 683.125 546.972656 682.859375 544.972656 684.046875 L 476.804688 615.878906 L 192.425781 615.878906 L 159.765625 583.21875 L 92.3125 583.21875 C 91.726562 580.972656 89.707031 579.3125 87.292969 579.3125 C 84.445312 579.3125 82.105469 581.652344 82.105469 584.5 C 82.105469 587.347656 84.445312 589.6875 87.292969 589.6875 C 89.707031 589.6875 91.746094 588.027344 92.3125 585.785156 L 158.691406 585.785156 L 191.351562 618.445312 L 475.726562 618.445312 L 543.144531 685.859375 C 541.953125 687.878906 542.21875 690.425781 543.9375 692.179688 M 610.730469 805.613281 C 614.730469 809.613281 621.277344 809.613281 625.292969 805.613281 C 629.292969 801.613281 629.292969 795.066406 625.292969 791.046875 C 621.917969 787.671875 616.730469 787.140625 612.785156 789.464844 L 486.578125 663.253906 L 339.425781 663.253906 L 303.199219 699.480469 L 135.859375 699.480469 C 134.707031 695.046875 130.671875 691.765625 125.898438 691.765625 C 120.238281 691.765625 115.59375 696.386719 115.59375 702.066406 C 115.59375 707.726562 120.21875 712.367188 125.898438 712.367188 C 130.671875 712.367188 134.707031 709.085938 135.859375 704.652344 L 305.332031 704.652344 L 341.558594 668.425781 L 484.445312 668.425781 L 609.144531 793.125 C 606.824219 797.046875 607.351562 802.238281 610.730469 805.613281 Z M 469.691406 649.6875 C 472.539062 649.6875 474.878906 647.347656 474.878906 644.5 C 474.878906 641.652344 472.539062 639.3125 469.691406 639.3125 C 467.277344 639.3125 465.238281 640.972656 464.671875 643.21875 L 274.859375 643.21875 L 248.746094 669.332031 L 46.011719 669.332031 C 45.445312 667.085938 43.40625 665.425781 40.992188 665.425781 C 38.144531 665.425781 35.804688 667.765625 35.804688 670.613281 C 35.804688 673.460938 38.144531 675.800781 40.992188 675.800781 C 43.40625 675.800781 45.445312 674.140625 46.011719 671.898438 L 249.804688 671.898438 L 275.917969 645.785156 L 464.671875 645.785156 C 465.238281 648.011719 467.277344 649.6875 469.691406 649.6875 Z M 794.445312 762.992188 C 802.957031 762.992188 809.878906 756.046875 809.878906 747.558594 C 809.878906 739.066406 802.9375 732.125 794.445312 732.125 C 787.277344 732.125 781.21875 737.066406 779.503906 743.707031 L 637.390625 743.707031 L 606.066406 712.386719 L 606.066406 568.425781 L 553.050781 515.40625 L 362.839844 515.40625 L 336.3125 541.933594 L 270.464844 541.933594 C 268.746094 535.292969 262.691406 530.347656 255.519531 530.347656 C 247.03125 530.347656 240.085938 537.292969 240.085938 545.78125 C 240.085938 554.273438 247.03125 561.21875 255.519531 561.21875 C 262.691406 561.21875 268.746094 556.273438 270.464844 549.632812 L 339.519531 549.632812 L 366.046875 523.105469 L 549.859375 523.105469 L 598.351562 571.59375 L 598.351562 715.558594 L 634.199219 751.40625 L 779.519531 751.40625 C 781.21875 758.046875 787.277344 762.992188 794.445312 762.992188 Z M 794.445312 727.59375 C 797.296875 727.59375 799.632812 725.253906 799.632812 722.40625 C 799.632812 719.558594 797.296875 717.21875 794.445312 717.21875 C 792.03125 717.21875 789.992188 718.878906 789.425781 721.125 L 666.730469 721.125 L 644.710938 699.105469 L 644.710938 587.933594 L 529.125 472.347656 L 361.5 472.347656 L 318.953125 514.894531 L 214.21875 514.894531 C 213.652344 512.652344 211.613281 510.992188 209.199219 510.992188 C 206.351562 510.992188 204.011719 513.332031 204.011719 516.179688 C 204.011719 519.027344 206.351562 521.367188 209.199219 521.367188 C 211.613281 521.367188 213.652344 519.707031 214.21875 517.460938 L 320.011719 517.460938 L 362.558594 474.914062 L 528.03125 474.914062 L 642.105469 588.992188 L 642.105469 700.160156 L 665.652344 723.6875 L 789.425781 723.6875 C 789.992188 725.933594 792.03125 727.59375 794.445312 727.59375 Z M 794.445312 699.027344 C 797.296875 699.027344 799.632812 696.6875 799.632812 693.839844 C 799.632812 690.992188 797.296875 688.652344 794.445312 688.652344 C 792.03125 688.652344 789.992188 690.3125 789.425781 692.558594 L 695.277344 692.558594 L 679.730469 677.011719 L 679.730469 626.066406 L 705.390625 600.40625 L 548.199219 443.21875 L 548.199219 380.6875 L 457.972656 290.460938 C 459.164062 288.460938 458.898438 285.914062 457.179688 284.160156 C 455.085938 282.140625 451.9375 282.140625 449.839844 284.160156 C 447.824219 286.253906 447.824219 289.40625 449.839844 291.5 C 451.613281 293.21875 454.144531 293.480469 456.144531 292.292969 L 545.613281 381.765625 L 545.613281 444.292969 L 701.746094 600.425781 L 677.144531 625.027344 L 677.144531 678.105469 L 694.199219 695.160156 L 789.40625 695.160156 C 789.992188 697.367188 792.03125 699.027344 794.445312 699.027344 Z M 794.445312 665.839844 C 797.296875 665.839844 799.632812 663.5 799.632812 660.652344 C 799.632812 657.800781 797.296875 655.460938 794.445312 655.460938 C 792.03125 655.460938 789.992188 657.121094 789.425781 659.367188 L 766.746094 659.367188 L 735.03125 623.5 L 735.03125 570.574219 L 604.390625 439.933594 L 604.390625 289.5 L 653.125 240.765625 L 653.125 91.726562 C 655.371094 91.160156 657.03125 89.121094 657.03125 86.707031 C 657.03125 83.859375 654.691406 81.519531 651.84375 81.519531 C 648.992188 81.519531 646.652344 83.859375 646.652344 86.707031 C 646.652344 89.121094 648.3125 91.160156 650.558594 91.726562 L 650.558594 239.6875 L 601.824219 288.425781 L 601.824219 440.992188 L 732.464844 571.632812 L 732.464844 624.460938 L 765.597656 661.933594 L 789.425781 661.933594 C 789.992188 664.179688 792.03125 665.839844 794.445312 665.839844 Z M 790.785156 547.367188 C 792.878906 549.386719 796.03125 549.386719 798.125 547.367188 C 800.144531 545.273438 800.144531 542.121094 798.125 540.027344 C 796.351562 538.3125 793.824219 538.046875 791.824219 539.234375 L 677.785156 425.199219 L 677.785156 226.046875 C 680.03125 225.480469 681.691406 223.441406 681.691406 221.027344 C 681.691406 218.179688 679.351562 215.839844 676.503906 215.839844 C 673.652344 215.839844 671.3125 218.179688 671.3125 221.027344 C 671.3125 223.441406 672.972656 225.480469 675.21875 226.046875 L 675.21875 426.273438 L 790.011719 541.066406 C 788.804688 543.066406 789.070312 545.59375 790.785156 547.367188 Z M 790.785156 412.273438 C 792.878906 414.292969 796.03125 414.292969 798.125 412.273438 C 800.144531 410.179688 800.144531 407.027344 798.125 404.933594 C 796.351562 403.21875 793.824219 402.953125 791.824219 404.140625 L 730.277344 342.59375 L 730.277344 178.953125 C 732.519531 178.367188 734.183594 176.347656 734.183594 173.933594 C 734.183594 171.085938 731.84375 168.746094 728.992188 168.746094 C 726.144531 168.746094 723.804688 171.085938 723.804688 173.933594 C 723.804688 176.347656 725.464844 178.386719 727.710938 178.953125 L 727.710938 343.667969 L 790.011719 405.972656 C 788.804688 407.972656 789.070312 410.5 790.785156 412.273438 Z M 787.164062 598.066406 C 791.164062 602.066406 797.710938 602.066406 801.730469 598.066406 C 805.730469 594.066406 805.730469 587.519531 801.730469 583.5 C 798.351562 580.121094 793.164062 579.59375 789.21875 581.914062 L 646.257812 438.953125 L 646.257812 320.539062 C 650.691406 319.386719 653.972656 315.347656 653.972656 310.574219 C 653.972656 304.914062 649.351562 300.273438 643.671875 300.273438 C 638.011719 300.273438 633.371094 304.894531 633.371094 310.574219 C 633.371094 315.347656 636.652344 319.386719 641.085938 320.539062 L 641.085938 441.085938 L 785.558594 585.558594 C 783.257812 589.5 783.785156 594.6875 787.164062 598.066406 Z M 794.445312 783.238281 C 797.296875 783.238281 799.632812 780.898438 799.632812 778.046875 C 799.632812 775.199219 797.296875 772.859375 794.445312 772.859375 C 792.03125 772.859375 789.992188 774.519531 789.425781 776.765625 L 616.21875 776.765625 L 568.726562 729.273438 L 568.726562 658.632812 L 480.9375 570.839844 L 291.085938 570.839844 C 290.519531 568.59375 288.484375 566.933594 286.066406 566.933594 C 283.21875 566.933594 280.878906 569.273438 280.878906 572.121094 C 280.878906 574.972656 283.21875 577.3125 286.066406 577.3125 C 288.484375 577.3125 290.519531 575.652344 291.085938 573.40625 L 479.859375 573.40625 L 566.144531 659.6875 L 566.144531 730.332031 L 615.144531 779.332031 L 789.40625 779.332031 C 789.992188 781.558594 792.03125 783.238281 794.445312 783.238281 Z M 794.445312 783.238281 " fill-opacity="1" fill-rule="nonzero"/></g><path fill="#737373" d="M 450.273438 158.199219 C 450.273438 158.804688 450.214844 159.402344 450.097656 159.996094 C 449.980469 160.589844 449.804688 161.164062 449.574219 161.722656 C 449.34375 162.28125 449.058594 162.808594 448.722656 163.3125 C 448.386719 163.8125 448.007812 164.277344 447.578125 164.707031 C 447.152344 165.132812 446.6875 165.515625 446.1875 165.851562 C 445.683594 166.1875 445.152344 166.46875 444.59375 166.699219 C 444.039062 166.929688 443.460938 167.105469 442.871094 167.222656 C 442.277344 167.339844 441.679688 167.402344 441.074219 167.402344 C 440.472656 167.402344 439.871094 167.339844 439.28125 167.222656 C 438.6875 167.105469 438.113281 166.929688 437.554688 166.699219 C 436.996094 166.46875 436.464844 166.1875 435.964844 165.851562 C 435.460938 165.515625 434.996094 165.132812 434.570312 164.707031 C 434.144531 164.277344 433.761719 163.8125 433.425781 163.3125 C 433.089844 162.808594 432.808594 162.28125 432.574219 161.722656 C 432.34375 161.164062 432.167969 160.589844 432.050781 159.996094 C 431.933594 159.402344 431.875 158.804688 431.875 158.199219 C 431.875 157.597656 431.933594 157 432.050781 156.40625 C 432.167969 155.8125 432.34375 155.238281 432.574219 154.679688 C 432.808594 154.121094 433.089844 153.59375 433.425781 153.089844 C 433.761719 152.585938 434.144531 152.121094 434.570312 151.695312 C 434.996094 151.269531 435.460938 150.886719 435.964844 150.550781 C 436.464844 150.214844 436.996094 149.933594 437.554688 149.703125 C 438.113281 149.46875 438.6875 149.296875 439.28125 149.179688 C 439.871094 149.058594 440.472656 149 441.074219 149 C 441.679688 149 442.277344 149.058594 442.871094 149.179688 C 443.460938 149.296875 444.039062 149.46875 444.59375 149.703125 C 445.152344 149.933594 445.683594 150.214844 446.1875 150.550781 C 446.6875 150.886719 447.152344 151.269531 447.578125 151.695312 C 448.007812 152.121094 448.386719 152.585938 448.722656 153.089844 C 449.058594 153.59375 449.34375 154.121094 449.574219 154.679688 C 449.804688 155.238281 449.980469 155.8125 450.097656 156.40625 C 450.214844 157 450.273438 157.597656 450.273438 158.199219 Z M 450.273438 158.199219 " fill-opacity="1" fill-rule="nonzero"/><path fill="#737373" d="M 440.546875 160.5 L 86.683594 158.554688 L 440.546875 156.582031 Z M 440.546875 160.5 " fill-opacity="1" fill-rule="nonzero"/><g clip-path="url(#52072763be)"><path fill="#737373" d="M 605.34375 135.042969 C 605.34375 135.953125 605.253906 136.855469 605.078125 137.75 C 604.898438 138.640625 604.636719 139.507812 604.289062 140.347656 C 603.941406 141.191406 603.511719 141.988281 603.007812 142.746094 C 602.5 143.503906 601.925781 144.203125 601.285156 144.847656 C 600.640625 145.492188 599.9375 146.066406 599.183594 146.570312 C 598.425781 147.078125 597.625 147.503906 596.785156 147.851562 C 595.945312 148.199219 595.078125 148.464844 594.183594 148.640625 C 593.292969 148.820312 592.390625 148.90625 591.480469 148.90625 C 590.570312 148.90625 589.667969 148.820312 588.777344 148.640625 C 587.882812 148.464844 587.015625 148.199219 586.175781 147.851562 C 585.335938 147.503906 584.535156 147.078125 583.777344 146.570312 C 583.023438 146.066406 582.320312 145.492188 581.679688 144.847656 C 581.035156 144.203125 580.460938 143.503906 579.953125 142.746094 C 579.449219 141.988281 579.019531 141.191406 578.671875 140.347656 C 578.324219 139.507812 578.0625 138.640625 577.882812 137.75 C 577.707031 136.855469 577.617188 135.953125 577.617188 135.042969 C 577.617188 134.132812 577.707031 133.234375 577.882812 132.339844 C 578.0625 131.445312 578.324219 130.582031 578.671875 129.738281 C 579.019531 128.898438 579.449219 128.097656 579.953125 127.34375 C 580.460938 126.585938 581.035156 125.886719 581.679688 125.242188 C 582.320312 124.597656 583.023438 124.023438 583.777344 123.519531 C 584.535156 123.011719 585.335938 122.585938 586.175781 122.238281 C 587.015625 121.886719 587.882812 121.625 588.777344 121.449219 C 589.667969 121.269531 590.570312 121.179688 591.480469 121.179688 C 592.390625 121.179688 593.292969 121.269531 594.183594 121.449219 C 595.078125 121.625 595.945312 121.886719 596.785156 122.238281 C 597.625 122.585938 598.425781 123.011719 599.183594 123.519531 C 599.9375 124.023438 600.640625 124.597656 601.285156 125.242188 C 601.925781 125.886719 602.5 126.585938 603.007812 127.34375 C 603.511719 128.097656 603.941406 128.898438 604.289062 129.738281 C 604.636719 130.582031 604.898438 131.445312 605.078125 132.339844 C 605.253906 133.234375 605.34375 134.132812 605.34375 135.042969 Z M 605.34375 135.042969 " fill-opacity="1" fill-rule="nonzero"/></g><g clip-path="url(#22d711a890)"><path fill="#737373" d="M 591.609375 137.003906 L 358.382812 136.167969 L 359.285156 135.78125 L 295.179688 202.296875 L 294.90625 202.582031 L 294.515625 202.578125 L 81 201.660156 L 294.515625 200.742188 L 293.851562 201.027344 L 357.476562 134.050781 L 357.84375 133.664062 L 358.382812 133.664062 L 591.609375 133.085938 Z M 591.609375 137.003906 " fill-opacity="1" fill-rule="nonzero"/></g><g clip-path="url(#51edc76ac5)"><path fill="#737373" d="M 605.34375 135.042969 C 605.34375 135.953125 605.253906 136.855469 605.078125 137.75 C 604.898438 138.640625 604.636719 139.507812 604.289062 140.347656 C 603.941406 141.191406 603.511719 141.988281 603.007812 142.746094 C 602.5 143.503906 601.925781 144.203125 601.285156 144.847656 C 600.640625 145.492188 599.9375 146.066406 599.183594 146.570312 C 598.425781 147.078125 597.625 147.503906 596.785156 147.851562 C 595.945312 148.199219 595.078125 148.464844 594.183594 148.640625 C 593.292969 148.820312 592.390625 148.90625 591.480469 148.90625 C 590.570312 148.90625 589.667969 148.820312 588.777344 148.640625 C 587.882812 148.464844 587.015625 148.199219 586.175781 147.851562 C 585.335938 147.503906 584.535156 147.078125 583.777344 146.570312 C 583.023438 146.066406 582.320312 145.492188 581.679688 144.847656 C 581.035156 144.203125 580.460938 143.503906 579.953125 142.746094 C 579.449219 141.988281 579.019531 141.191406 578.671875 140.347656 C 578.324219 139.507812 578.0625 138.640625 577.882812 137.75 C 577.707031 136.855469 577.617188 135.953125 577.617188 135.042969 C 577.617188 134.132812 577.707031 133.234375 577.882812 132.339844 C 578.0625 131.445312 578.324219 130.582031 578.671875 129.738281 C 579.019531 128.898438 579.449219 128.097656 579.953125 127.34375 C 580.460938 126.585938 581.035156 125.886719 581.679688 125.242188 C 582.320312 124.597656 583.023438 124.023438 583.777344 123.519531 C 584.535156 123.011719 585.335938 122.585938 586.175781 122.238281 C 587.015625 121.886719 587.882812 121.625 588.777344 121.449219 C 589.667969 121.269531 590.570312 121.179688 591.480469 121.179688 C 592.390625 121.179688 593.292969 121.269531 594.183594 121.449219 C 595.078125 121.625 595.945312 121.886719 596.785156 122.238281 C 597.625 122.585938 598.425781 123.011719 599.183594 123.519531 C 599.9375 124.023438 600.640625 124.597656 601.285156 125.242188 C 601.925781 125.886719 602.5 126.585938 603.007812 127.34375 C 603.511719 128.097656 603.941406 128.898438 604.289062 129.738281 C 604.636719 130.582031 604.898438 131.445312 605.078125 132.339844 C 605.253906 133.234375 605.34375 134.132812 605.34375 135.042969 Z M 605.34375 135.042969 " fill-opacity="1" fill-rule="nonzero"/></g><g clip-path="url(#dd41749c3b)"><path fill="#737373" d="M 591.609375 137.003906 L 358.382812 136.167969 L 359.285156 135.78125 L 295.179688 202.296875 L 294.90625 202.582031 L 294.515625 202.578125 L 81 201.660156 L 294.515625 200.742188 L 293.851562 201.027344 L 357.476562 134.050781 L 357.84375 133.664062 L 358.382812 133.664062 L 591.609375 133.085938 Z M 591.609375 137.003906 " fill-opacity="1" fill-rule="nonzero"/></g><g clip-path="url(#48d99dc127)"><path fill="#737373" d="M 477 113.144531 C 477 114.054688 476.914062 114.957031 476.734375 115.847656 C 476.558594 116.742188 476.292969 117.609375 475.945312 118.449219 C 475.597656 119.289062 475.171875 120.089844 474.664062 120.84375 C 474.160156 121.601562 473.585938 122.300781 472.941406 122.945312 C 472.296875 123.589844 471.597656 124.164062 470.839844 124.671875 C 470.082031 125.175781 469.285156 125.601562 468.441406 125.953125 C 467.601562 126.300781 466.734375 126.5625 465.84375 126.742188 C 464.949219 126.917969 464.046875 127.007812 463.136719 127.007812 C 462.226562 127.007812 461.328125 126.917969 460.433594 126.742188 C 459.539062 126.5625 458.671875 126.300781 457.832031 125.953125 C 456.992188 125.601562 456.191406 125.175781 455.4375 124.671875 C 454.679688 124.164062 453.980469 123.589844 453.335938 122.945312 C 452.691406 122.300781 452.117188 121.601562 451.613281 120.84375 C 451.105469 120.089844 450.679688 119.289062 450.332031 118.449219 C 449.980469 117.609375 449.71875 116.742188 449.542969 115.847656 C 449.363281 114.957031 449.273438 114.054688 449.273438 113.144531 C 449.273438 112.234375 449.363281 111.332031 449.542969 110.4375 C 449.71875 109.546875 449.980469 108.679688 450.332031 107.839844 C 450.679688 106.996094 451.105469 106.199219 451.613281 105.441406 C 452.117188 104.683594 452.691406 103.984375 453.335938 103.339844 C 453.980469 102.699219 454.679688 102.121094 455.4375 101.617188 C 456.191406 101.113281 456.992188 100.683594 457.832031 100.335938 C 458.671875 99.988281 459.539062 99.726562 460.433594 99.546875 C 461.328125 99.371094 462.226562 99.28125 463.136719 99.28125 C 464.046875 99.28125 464.949219 99.371094 465.84375 99.546875 C 466.734375 99.726562 467.601562 99.988281 468.441406 100.335938 C 469.285156 100.683594 470.082031 101.113281 470.839844 101.617188 C 471.597656 102.121094 472.296875 102.699219 472.941406 103.339844 C 473.585938 103.984375 474.160156 104.683594 474.664062 105.441406 C 475.171875 106.199219 475.597656 106.996094 475.945312 107.839844 C 476.292969 108.679688 476.558594 109.546875 476.734375 110.4375 C 476.914062 111.332031 477 112.234375 477 113.144531 Z M 477 113.144531 " fill-opacity="1" fill-rule="nonzero"/></g><path fill="#737373" d="M 460.738281 115.101562 L 426.980469 114.929688 L 410.101562 114.847656 L 401.664062 114.816406 L 399.703125 114.816406 C 399.675781 117.734375 399.859375 110.835938 399.714844 111.539062 L 399.738281 111.539062 L 401.824219 111.566406 L 406.042969 111.601562 L 410.265625 111.640625 L 412.398438 111.664062 L 412.507812 111.664062 C 412.679688 110.988281 412.46875 117.609375 412.476562 114.800781 L 410.417969 114.800781 L 401.976562 114.765625 L 385.097656 114.6875 L 351.335938 114.511719 L 352.226562 114.136719 L 288.113281 178.84375 L 287.835938 179.121094 L 287.457031 179.121094 L 82.566406 178.199219 L 287.464844 177.28125 L 286.808594 177.554688 L 350.433594 112.394531 L 350.796875 112.023438 L 351.328125 112.023438 L 385.089844 111.84375 L 401.964844 111.746094 L 410.402344 111.691406 L 412.371094 111.691406 C 412.398438 108.890625 412.222656 115.507812 412.355469 114.828125 L 399.5625 114.828125 C 399.382812 115.53125 399.601562 108.628906 399.59375 111.546875 L 401.652344 111.546875 L 410.09375 111.492188 L 426.976562 111.398438 L 460.734375 111.21875 Z M 460.738281 115.101562 " fill-opacity="1" fill-rule="nonzero"/><path fill="#737373" d="M 217.769531 346.066406 C 217.769531 345.464844 217.828125 344.867188 217.945312 344.273438 C 218.066406 343.679688 218.238281 343.105469 218.46875 342.546875 C 218.703125 341.988281 218.984375 341.460938 219.320312 340.957031 C 219.65625 340.453125 220.039062 339.992188 220.464844 339.5625 C 220.890625 339.136719 221.355469 338.753906 221.859375 338.417969 C 222.359375 338.082031 222.890625 337.800781 223.449219 337.570312 C 224.007812 337.335938 224.582031 337.164062 225.175781 337.046875 C 225.765625 336.925781 226.367188 336.867188 226.96875 336.867188 C 227.574219 336.867188 228.171875 336.925781 228.765625 337.046875 C 229.355469 337.164062 229.933594 337.335938 230.488281 337.570312 C 231.046875 337.800781 231.578125 338.082031 232.082031 338.417969 C 232.582031 338.753906 233.046875 339.136719 233.476562 339.5625 C 233.902344 339.992188 234.28125 340.453125 234.617188 340.957031 C 234.953125 341.460938 235.238281 341.988281 235.46875 342.546875 C 235.699219 343.105469 235.875 343.679688 235.992188 344.273438 C 236.109375 344.867188 236.167969 345.464844 236.167969 346.066406 C 236.167969 346.671875 236.109375 347.269531 235.992188 347.863281 C 235.875 348.457031 235.699219 349.03125 235.46875 349.589844 C 235.238281 350.148438 234.953125 350.675781 234.617188 351.179688 C 234.28125 351.679688 233.902344 352.144531 233.476562 352.574219 C 233.046875 353 232.582031 353.382812 232.082031 353.71875 C 231.578125 354.054688 231.046875 354.335938 230.488281 354.566406 C 229.933594 354.796875 229.355469 354.972656 228.765625 355.089844 C 228.171875 355.207031 227.574219 355.269531 226.96875 355.269531 C 226.367188 355.269531 225.765625 355.207031 225.175781 355.089844 C 224.582031 354.972656 224.007812 354.796875 223.449219 354.566406 C 222.890625 354.335938 222.359375 354.054688 221.859375 353.71875 C 221.355469 353.382812 220.890625 353 220.464844 352.574219 C 220.039062 352.144531 219.65625 351.679688 219.320312 351.179688 C 218.984375 350.675781 218.703125 350.148438 218.46875 349.589844 C 218.238281 349.03125 218.066406 348.457031 217.945312 347.863281 C 217.828125 347.269531 217.769531 346.671875 217.769531 346.066406 Z M 217.769531 346.066406 " fill-opacity="1" fill-rule="nonzero"/><path fill="#737373" d="M 227.5 343.769531 L 581.363281 345.714844 L 227.5 347.6875 Z M 227.5 343.769531 " fill-opacity="1" fill-rule="nonzero"/><g clip-path="url(#30c0cd60be)"><path fill="#737373" d="M 62.699219 369.226562 C 62.699219 368.316406 62.789062 367.414062 62.96875 366.519531 C 63.144531 365.628906 63.40625 364.761719 63.757812 363.917969 C 64.105469 363.078125 64.53125 362.28125 65.039062 361.523438 C 65.542969 360.765625 66.117188 360.066406 66.761719 359.421875 C 67.40625 358.777344 68.105469 358.203125 68.863281 357.699219 C 69.617188 357.191406 70.417969 356.765625 71.257812 356.417969 C 72.097656 356.070312 72.964844 355.804688 73.859375 355.628906 C 74.753906 355.449219 75.652344 355.363281 76.5625 355.363281 C 77.472656 355.363281 78.375 355.449219 79.269531 355.628906 C 80.160156 355.804688 81.027344 356.070312 81.867188 356.417969 C 82.710938 356.765625 83.507812 357.191406 84.265625 357.699219 C 85.023438 358.203125 85.722656 358.777344 86.367188 359.421875 C 87.011719 360.066406 87.585938 360.765625 88.089844 361.523438 C 88.597656 362.28125 89.023438 363.078125 89.371094 363.917969 C 89.71875 364.761719 89.984375 365.628906 90.160156 366.519531 C 90.339844 367.414062 90.425781 368.316406 90.425781 369.226562 C 90.425781 370.136719 90.339844 371.035156 90.160156 371.929688 C 89.984375 372.820312 89.71875 373.6875 89.371094 374.53125 C 89.023438 375.371094 88.597656 376.167969 88.089844 376.925781 C 87.585938 377.683594 87.011719 378.382812 86.367188 379.027344 C 85.722656 379.671875 85.023438 380.246094 84.265625 380.75 C 83.507812 381.257812 82.710938 381.683594 81.867188 382.03125 C 81.027344 382.378906 80.160156 382.644531 79.269531 382.820312 C 78.375 383 77.472656 383.085938 76.5625 383.085938 C 75.652344 383.085938 74.753906 383 73.859375 382.820312 C 72.964844 382.644531 72.097656 382.378906 71.257812 382.03125 C 70.417969 381.683594 69.617188 381.257812 68.863281 380.75 C 68.105469 380.246094 67.40625 379.671875 66.761719 379.027344 C 66.117188 378.382812 65.542969 377.683594 65.039062 376.925781 C 64.53125 376.167969 64.105469 375.371094 63.757812 374.53125 C 63.40625 373.6875 63.144531 372.820312 62.96875 371.929688 C 62.789062 371.035156 62.699219 370.136719 62.699219 369.226562 Z M 62.699219 369.226562 " fill-opacity="1" fill-rule="nonzero"/></g><g clip-path="url(#607116304a)"><path fill="#737373" d="M 76.4375 367.265625 L 309.660156 368.101562 L 308.757812 368.488281 L 372.863281 301.972656 L 373.140625 301.6875 L 373.527344 301.6875 L 587.042969 302.609375 L 373.527344 303.527344 L 374.191406 303.242188 L 310.566406 370.21875 L 310.199219 370.605469 L 309.660156 370.605469 L 76.4375 371.183594 Z M 76.4375 367.265625 " fill-opacity="1" fill-rule="nonzero"/></g><g clip-path="url(#6415db8e92)"><path fill="#737373" d="M 62.699219 369.226562 C 62.699219 368.316406 62.789062 367.414062 62.96875 366.519531 C 63.144531 365.628906 63.40625 364.761719 63.757812 363.917969 C 64.105469 363.078125 64.53125 362.28125 65.039062 361.523438 C 65.542969 360.765625 66.117188 360.066406 66.761719 359.421875 C 67.40625 358.777344 68.105469 358.203125 68.863281 357.699219 C 69.617188 357.191406 70.417969 356.765625 71.257812 356.417969 C 72.097656 356.070312 72.964844 355.804688 73.859375 355.628906 C 74.753906 355.449219 75.652344 355.363281 76.5625 355.363281 C 77.472656 355.363281 78.375 355.449219 79.269531 355.628906 C 80.160156 355.804688 81.027344 356.070312 81.867188 356.417969 C 82.710938 356.765625 83.507812 357.191406 84.265625 357.699219 C 85.023438 358.203125 85.722656 358.777344 86.367188 359.421875 C 87.011719 360.066406 87.585938 360.765625 88.089844 361.523438 C 88.597656 362.28125 89.023438 363.078125 89.371094 363.917969 C 89.71875 364.761719 89.984375 365.628906 90.160156 366.519531 C 90.339844 367.414062 90.425781 368.316406 90.425781 369.226562 C 90.425781 370.136719 90.339844 371.035156 90.160156 371.929688 C 89.984375 372.820312 89.71875 373.6875 89.371094 374.53125 C 89.023438 375.371094 88.597656 376.167969 88.089844 376.925781 C 87.585938 377.683594 87.011719 378.382812 86.367188 379.027344 C 85.722656 379.671875 85.023438 380.246094 84.265625 380.75 C 83.507812 381.257812 82.710938 381.683594 81.867188 382.03125 C 81.027344 382.378906 80.160156 382.644531 79.269531 382.820312 C 78.375 383 77.472656 383.085938 76.5625 383.085938 C 75.652344 383.085938 74.753906 383 73.859375 382.820312 C 72.964844 382.644531 72.097656 382.378906 71.257812 382.03125 C 70.417969 381.683594 69.617188 381.257812 68.863281 380.75 C 68.105469 380.246094 67.40625 379.671875 66.761719 379.027344 C 66.117188 378.382812 65.542969 377.683594 65.039062 376.925781 C 64.53125 376.167969 64.105469 375.371094 63.757812 374.53125 C 63.40625 373.6875 63.144531 372.820312 62.96875 371.929688 C 62.789062 371.035156 62.699219 370.136719 62.699219 369.226562 Z M 62.699219 369.226562 " fill-opacity="1" fill-rule="nonzero"/></g><g clip-path="url(#ef04cfb17c)"><path fill="#737373" d="M 76.4375 367.265625 L 309.660156 368.101562 L 308.757812 368.488281 L 372.863281 301.972656 L 373.140625 301.6875 L 373.527344 301.6875 L 587.042969 302.609375 L 373.527344 303.527344 L 374.191406 303.242188 L 310.566406 370.21875 L 310.199219 370.605469 L 309.660156 370.605469 L 76.4375 371.183594 Z M 76.4375 367.265625 " fill-opacity="1" fill-rule="nonzero"/></g><g clip-path="url(#f3187ff773)"><path fill="#737373" d="M 191.042969 391.125 C 191.042969 390.214844 191.132812 389.3125 191.308594 388.421875 C 191.488281 387.527344 191.75 386.660156 192.097656 385.820312 C 192.445312 384.980469 192.875 384.179688 193.378906 383.421875 C 193.886719 382.667969 194.460938 381.964844 195.105469 381.324219 C 195.746094 380.679688 196.449219 380.105469 197.203125 379.597656 C 197.960938 379.09375 198.761719 378.664062 199.601562 378.316406 C 200.441406 377.96875 201.308594 377.707031 202.203125 377.527344 C 203.09375 377.351562 203.996094 377.261719 204.90625 377.261719 C 205.816406 377.261719 206.71875 377.351562 207.609375 377.527344 C 208.503906 377.707031 209.371094 377.96875 210.210938 378.316406 C 211.050781 378.664062 211.851562 379.09375 212.609375 379.597656 C 213.363281 380.105469 214.066406 380.679688 214.710938 381.324219 C 215.351562 381.964844 215.925781 382.667969 216.433594 383.421875 C 216.9375 384.179688 217.367188 384.980469 217.714844 385.820312 C 218.0625 386.660156 218.324219 387.527344 218.503906 388.421875 C 218.679688 389.3125 218.769531 390.214844 218.769531 391.125 C 218.769531 392.035156 218.679688 392.9375 218.503906 393.828125 C 218.324219 394.722656 218.0625 395.589844 217.714844 396.429688 C 217.367188 397.269531 216.9375 398.070312 216.433594 398.828125 C 215.925781 399.585938 215.351562 400.285156 214.710938 400.929688 C 214.066406 401.570312 213.363281 402.144531 212.609375 402.652344 C 211.851562 403.15625 211.050781 403.585938 210.210938 403.933594 C 209.371094 404.28125 208.503906 404.542969 207.609375 404.722656 C 206.71875 404.898438 205.816406 404.988281 204.90625 404.988281 C 203.996094 404.988281 203.09375 404.898438 202.203125 404.722656 C 201.308594 404.542969 200.441406 404.28125 199.601562 403.933594 C 198.761719 403.585938 197.960938 403.15625 197.203125 402.652344 C 196.449219 402.144531 195.746094 401.570312 195.105469 400.929688 C 194.460938 400.285156 193.886719 399.585938 193.378906 398.828125 C 192.875 398.070312 192.445312 397.269531 192.097656 396.429688 C 191.75 395.589844 191.488281 394.722656 191.308594 393.828125 C 191.132812 392.9375 191.042969 392.035156 191.042969 391.125 Z M 191.042969 391.125 " fill-opacity="1" fill-rule="nonzero"/></g><path fill="#737373" d="M 207.308594 389.164062 L 241.066406 389.339844 L 257.945312 389.421875 L 266.382812 389.453125 L 268.339844 389.453125 C 268.371094 386.535156 268.1875 393.433594 268.328125 392.726562 L 268.308594 392.726562 L 266.21875 392.703125 L 262 392.667969 L 257.78125 392.628906 L 255.648438 392.605469 L 255.539062 392.605469 C 255.363281 393.28125 255.574219 386.660156 255.566406 389.46875 L 257.625 389.46875 L 266.066406 389.503906 L 282.949219 389.582031 L 316.710938 389.757812 L 315.816406 390.132812 L 379.933594 325.425781 L 380.207031 325.148438 L 380.589844 325.148438 L 585.476562 326.070312 L 380.582031 326.988281 L 381.234375 326.714844 L 317.609375 391.875 L 317.246094 392.246094 L 316.714844 392.246094 L 282.957031 392.425781 L 266.078125 392.523438 L 257.640625 392.578125 L 255.675781 392.578125 C 255.648438 395.378906 255.820312 388.761719 255.6875 389.441406 L 268.480469 389.441406 C 268.664062 388.738281 268.441406 395.640625 268.449219 392.71875 L 266.394531 392.71875 L 257.949219 392.773438 L 241.070312 392.871094 L 207.308594 393.050781 Z M 207.308594 389.164062 " fill-opacity="1" fill-rule="nonzero"/></svg>